<svg xmlns="http://www.w3.org/2000/svg" viewBox="0 0 608 608">
<g transform="translate(0,51.00)">
<g transform="translate(0,506) scale(0.1,-0.1)">
<path fill="#000000" d="M5078 4761 c-346 -244 -668 -508 -1198 -981 -276 -247 -467 -429
-1025 -975 -721 -707 -1735 -1696 -1885 -1840 -69 -66 -177 -170 -240 -230
-63 -61 -206 -195 -317 -299 -112 -103 -200 -192 -197 -197 8 -13 929 -11
1017 2 107 16 268 64 350 105 155 78 238 155 493 459 207 248 784 953 1124
1374 69 85 159 196 200 247 590 723 1151 1456 1547 2019 38 55 116 165 171
244 56 79 102 148 102 152 0 18 -19 7 -142 -80z M3750 1970 c-36 -5 -103 -21
-150 -36 -85 -26 -280 -119 -280 -134 0 -4 95 -108 212 -231 428 -453 539
-570 810 -859 152 -162 298 -312 326 -332 27 -21 82 -53 123 -71 133 -61 169
-65 624 -68 499 -3 460 -4 442 21 -24 34 -928 979 -1281 1339 -228 232 -346
316 -500 355 -74 20 -242 27 -326 16z"/><path fill="#000000" d="M3715 1969 c-138 -26 -390 -135 -390 -170 0 -8 239 -269 531 -580
291 -310 577 -614 633 -676 156 -169 243 -230 406 -284 69 -23 79 -23 523 -27
377 -3 452 -1 452 11 0 12 -463 508 -769 822 -212 218 -527 539 -628 640 -155
156 -281 232 -427 260 -85 16 -252 18 -331 4z"/>
</g>
</g>
</svg>